<svg version="1.1" id="Layer_1" xmlns="http://www.w3.org/2000/svg" xmlns:xlink="http://www.w3.org/1999/xlink" x="0px" y="0px" viewBox="0 0 360 360" style="enable-background:new 0 0 360 360;" xml:space="preserve" width="360"  height="360" >
<style type="text/css">
	.st0{fill-rule:evenodd;clip-rule:evenodd;fill:#282829;}
	.st1{opacity:0.91;enable-background:new    ;}
	.st2{fill:#1F1A17;stroke:#1F1A17;stroke-width:0.0762;}
	.st3{fill:#1F1A17;}
	.st4{fill:none;stroke:#1F1A17;stroke-width:3;stroke-linecap:round;stroke-linejoin:round;}
	.st5{fill:none;stroke:#1F1A17;}
	.st6{fill:none;}
</style>
<g>
	<g>
		<g>
			<path d="M288.87,171.93l-6.42,5.6l-2.75,2.03c0-0.25,0.92-2.54,3.06-7.38l2.45-5.85c0.92-1.78,1.53-4.07,1.53-6.36     c0-1.27-0.61-2.03-1.53-2.29c-1.53-0.51-2.75,0-3.98,1.53c-1.53,1.78-2.75,3.56-3.67,5.85c-3.36,6.87-5.81,13.74-7.03,20.35     l-0.31,1.02c-0.31,0.25-1.22,1.02-2.14,1.78c-1.22,0.76-2.45,1.53-3.67,1.78l0.92-1.02c0.31-0.76,0.92-1.53,1.83-2.29     c0.92-1.02,1.53-1.53,1.83-2.29c0.31-0.51,0.92-1.53,1.22-2.8c0.31-1.53-0.31-2.29-1.83-2.29c-0.61,0-1.22,0.25-1.53,0.51     l-2.45,1.53c-3.67,3.05-5.51,4.58-5.81,4.58c0.31-0.51,0.92-1.53,1.22-3.31c0.31-1.78,0.61-3.05,0.61-4.07     c-0.31-1.53-1.22-2.29-2.75-2.29c-0.92,0-1.53,0.26-2.14,0.76c-0.92,0.51-1.83,1.27-2.45,2.29c-2.75,3.05-4.59,6.36-5.51,10.18     c-0.31,2.03-0.92,5.09-1.22,9.16c0,1.27-0.61,2.03-2.14,2.54c-0.31,0.25-0.92,0.25-1.53,0.51c-0.92,0.25-1.53,0.51-2.45,1.02     c-0.31,0.25-0.61,0.51-0.61,0.76c-0.31,0.25-0.31,0.51,0,0.76c0.61,0.51,1.22,0.51,2.14,0.25c0.92-0.51,1.22-0.51,1.53-0.51     l8.26-3.05c0.61-0.26,1.83-0.76,3.98-1.02l-0.31,0.76l16.21-1.53c0.61,0,1.53-0.26,2.75-0.51c1.53-0.76,2.14-1.27,2.14-2.04     v-0.51c0-1.27-0.92-1.78-2.75-2.04c-1.53-0.25-3.06-0.25-4.59,0h-3.06c0.61-0.51,1.22-0.76,1.84-0.76l14.99-3.81     c0.92-0.26,4.89-1.53,11.32-3.82c1.53-0.76,2.45-1.53,2.45-2.29v-0.51c-0.31-1.02-1.53-1.53-3.06-1.53h-0.92l-9.18,1.78     l-2.75,0.25c2.45-2.03,3.98-3.31,4.89-3.56c2.75-1.27,5.2-2.29,6.73-2.8l6.42-2.8c2.14-1.27,5.5-3.05,10.09-5.85     c0,0,0.92-0.76,2.75-2.29c0.31-0.76,0.31-1.53,0-2.29s-1.22-1.02-2.14-1.27c-1.83,0-3.06,0-3.98,0.25l-4.28,1.27l1.83-1.78     c3.98-4.07,5.81-6.36,6.12-6.61c0,0,2.14-2.8,6.42-8.39c0.92-1.27,1.22-2.54,1.22-3.56c0.31-0.76,0-1.27-0.31-1.78     c-0.61-0.51-1.22-0.76-1.83-0.76c-0.31,0-0.61,0.26-1.53,0.51c-1.53,0.76-2.75,1.53-3.67,2.8c-2.45,2.54-4.89,5.85-7.65,10.18     c-0.31,0.25-0.31,0.25-0.61,0.51c-0.31,0.26-0.31,0.76-0.61,1.27l0.31-4.07c0-1.78-0.61-2.8-1.83-3.05     c-1.53-0.25-2.75,0.51-3.36,1.78c-0.92,1.27-1.83,3.05-3.06,5.34c-1.22,4.07-1.83,8.14-1.83,11.96     C290.39,170.15,289.78,171.16,288.87,171.93z M256.14,180.83c-0.92,3.31-3.06,7.38-5.81,11.7c0.31-2.29,0.92-4.58,2.14-6.87     c1.22-2.54,2.45-4.07,3.98-5.09L256.14,180.83z M278.47,169.38c1.53-4.07,3.06-6.36,4.59-7.63V162     c-1.53,4.32-3.98,9.67-7.34,16.28C276.02,176.25,276.94,173.2,278.47,169.38z M288.87,183.63l0.31,0.51l-12.85,3.82     C279.69,186.17,283.67,184.9,288.87,183.63z M312.72,145.22c-1.53,3.31-4.59,6.87-8.56,11.19     C306.3,152.08,309.36,148.27,312.72,145.22z M307.83,164.55c-2.75,2.8-7.65,5.6-14.68,8.39     C297.73,168.37,302.63,165.57,307.83,164.55z"/>
			<path d="M224.03,209.58h-0.61c-1.83,0.26-3.06,1.27-3.36,2.8c0,1.53,0,2.54,0.31,3.05c0.31,0.76,0.92,1.53,1.53,2.03     c0.61,0.51,1.22,0.76,2.14,0.76h0.31c1.83,0,3.06-1.02,3.67-3.05v-1.53l-0.61-2.29C226.47,210.08,225.25,209.58,224.03,209.58z"/>
			<path d="M236.87,208.05h-0.31c-0.61,0.76-0.92,1.78-0.92,3.05s0.31,2.29,0.92,3.05c1.22,1.27,2.45,1.53,3.67,0.51     s1.83-2.29,1.83-4.07c0-1.27-0.31-2.04-1.22-2.8C239.32,206.52,238.1,206.78,236.87,208.05z"/>
			<path d="M229.53,208.3c2.45-0.25,3.98-2.04,4.28-5.34c0-1.02-0.61-2.54-1.53-4.58c-0.61-1.27-1.53-1.78-3.06-1.78     c-0.92,0-1.22,0-1.53,0.26c-1.22,0.76-2.14,1.53-3.06,2.54c-0.92,1.27-1.22,2.29-1.22,3.56s0.61,2.54,1.53,3.82     c0.92,1.02,2.14,1.53,3.67,1.53L229.53,208.3L229.53,208.3z"/>
			<path d="M298.04,211.36c-2.45,2.29-5.5,3.56-9.48,3.56h-11.01c0.61-0.25,1.53-0.76,2.45-1.02c0.92-0.51,1.83-0.51,2.14-0.76     c3.36-0.76,7.03-1.78,11.01-3.56l3.98-2.29c0.31-0.26,0.61-1.02,0.61-2.04c-0.31-0.76-0.92-1.27-2.14-1.27     c-1.83,0-3.06,0-3.98,0.26l-12.85,2.54l-2.14,0.51c0-2.04-0.61-3.05-2.14-3.05l-1.22,0.25c-2.14,0.76-3.67,1.27-3.98,1.53     c-0.61,0.25-1.84,0.51-3.36,1.27c-1.53,0.76-3.06,1.78-4.28,2.8c-1.53,1.27-3.36,1.78-5.2,1.78c-0.92,0-1.83-0.25-3.06-0.51     c-0.92-0.26-2.45-0.76-4.89-1.02c-0.92,0-1.53,0.51-1.53,1.27c0.31,0.51,0.61,0.76,1.53,1.02c0.92,0.25,1.22,0.51,1.53,0.51     c1.22,0.25,2.75,0.76,4.28,1.02c1.53,0.51,3.67,1.02,5.81,1.27c2.45,0.25,5.2,1.02,7.95,2.54c8.26,3.81,12.85,5.85,14.37,6.61     c0.61,0.25,1.53,0.51,2.75,0.76s2.14,0.51,2.75,0.76c0.92,0.25,1.83,0,2.75-0.76c0.61-0.76,0.61-1.53-0.31-2.54     c-1.22-1.27-2.75-2.55-4.28-3.56l-3.67-1.78l5.5,0.51c1.53,0.51,3.36,1.02,5.5,1.78s4.28,1.27,7.03,2.03     c5.5,1.53,10.09,2.29,14.07,2.29h3.06c1.53-0.25,2.14-0.76,2.14-1.53c-0.31-1.02-0.92-1.78-1.22-2.03     c-0.61-0.51-1.53-1.02-2.75-1.27l-8.87-2.29c-0.61,0-1.22-0.25-2.14-0.51l5.2-0.76c7.65-0.76,13.46-1.27,18.04-1.78     c5.81-0.51,10.4-1.78,14.07-3.56c1.53-0.51,2.75-1.27,4.28-2.54c0.61-0.51,0.92-1.02,0.92-1.78c0-1.27-0.92-2.04-2.75-2.29     l-0.31,0.51c-0.61-0.26-1.53-0.26-2.45-0.26c-1.22,0-2.14,0-2.75,0.26c-4.89,1.27-8.26,2.03-10.4,2.8     c-2.75,0.76-7.65,2.8-15.29,5.6c-1.22,0.51-3.06,0.76-5.2,0.76h-0.31c0.92-0.25,1.53-0.76,1.83-1.02     c4.59-2.54,7.95-4.32,9.48-5.34c0.92-0.25,1.83-1.27,2.75-2.8c0.31-0.76,0.31-1.53,0-2.29c-0.61-0.76-1.53-1.02-2.45-1.02     l-2.41,0.25c-3.36,0.76-6.42,2.04-9.18,3.82C303.24,207.79,300.18,209.83,298.04,211.36z M291.92,206.78     c-5.81,2.54-13.15,4.32-22.02,5.6C277.55,209.32,284.89,207.54,291.92,206.78z M286.11,222.8c-3.67-1.02-7.95-2.8-13.15-5.6     C277.86,217.72,282.14,219.5,286.11,222.8z M332.91,207.79c3.36-1.02,6.73-1.53,10.09-1.53c-2.75,1.53-5.81,2.54-9.18,3.31     c-3.15,0.71-6.85,1.42-11.07,1.93C326.39,209.92,329.79,208.74,332.91,207.79z M317.92,203.72c-3.67,3.05-9.48,6.11-17.13,8.9     C306.91,207.79,312.72,205,317.92,203.72z"/>
		</g>
		<g>
			<path d="M192.37,200.17c-0.13-0.11-0.28-0.23-0.44-0.36c0.26,0.28,0.5,0.53,0.69,0.73C192.55,200.41,192.47,200.29,192.37,200.17     z"/>
			<path d="M193.3,201.18c-0.08-0.07-0.3-0.28-0.66-0.65c0.44,0.64,0.71,1.28,0.96,1.93c-0.92,0.76-1.83,0.76-2.75,0h-0.31     c-2.14-0.76-4.59-1.78-6.73-3.05c-0.92-0.76-4.28-3.05-9.48-6.87l-8.87-6.87l-0.92-1.27l1.53,0.51     c9.48,3.05,17.43,7.38,23.86,13.23c0.72,0.6,1.44,1.2,2.01,1.67c-0.47-0.5-1.04-1.13-1.71-1.93     c-7.34-6.1-15.29-10.68-24.16-13.48l-12.23-4.83c-0.31,0-0.61,0-0.61-0.26l0.31-0.51c0.31,0.25,1.22,0.25,2.14,0.25     c6.42,1.02,11.32,1.78,14.68,2.04c2.14,0.25,5.51,0.25,9.79,0.25c1.53,0,2.45-0.51,2.75-1.78c0.31-0.76,0-1.78-1.53-2.55     c-1.53-0.76-3.36-1.27-5.81-1.78c-5.81-1.27-11.62-2.03-17.13-2.03c-2.75,0-7.03,0.25-12.23,1.02c-2.75,0.25-5.2,0.51-6.73,0.51     c-2.14,0-4.28-0.26-6.12-1.02l-3.06-0.51c1.22-0.25,2.75-0.76,4.59-1.02c1.84-0.51,3.36-0.51,4.28-0.76l15.6-2.8     c0.92-0.25,2.14-0.51,3.67-1.27c1.22-0.76,1.53-1.53,0.92-2.29c-0.31-0.76-0.92-1.27-1.84-1.27c-0.92-0.25-2.14-0.51-3.97-0.51     c-6.12,0-11.93,0.51-17.43,1.78l-1.84,0.25c1.84-1.53,2.75-2.29,2.75-2.29c0.61-0.76,0.92-1.27,0.61-1.78s-1.22-0.76-2.14-1.02     l-2.14,0.25c-4.59,1.02-8.26,2.54-11.62,4.58l-7.03,4.58c-1.22,0.76-2.14,1.02-3.06,1.02h-0.61l-9.48-0.26     c0,0-0.61-0.25-1.84-0.51c3.67-1.02,7.03-2.04,9.79-3.31c0.31-0.26,1.84-0.76,4.28-2.04c0.92-0.51,1.22-1.27,0.92-2.29     c-0.31-1.02-0.92-1.53-2.45-1.53c-0.61-0.25-1.53-0.25-2.75-0.25s-2.14,0-2.75,0.25c-7.03,1.27-14.07,4.07-20.8,8.9     c-0.92,0.76-1.53,1.02-1.83,1.02l-10.7,1.27l5.81-3.81c1.22-0.76,2.14-1.53,3.06-2.55c0.92-0.76,0.92-1.27,0.61-2.03     c-0.31-0.51-1.22-0.76-2.45-0.76l-2.75,0.76c-5.5,2.29-11.01,5.34-16.21,9.67c-0.92,0.76-1.84,1.27-2.45,1.53l-19.57,5.6     l8.87-6.36l7.03-6.11c0.92-0.51,1.53-1.27,1.84-2.29c0.31-0.76,0.31-1.27,0-1.78s-0.92-0.76-1.84-0.76h-0.61     c-0.92,0-1.84,0.26-2.75,0.76c-8.26,3.31-14.99,8.4-20.49,15.26l-2.45,4.07c-0.92,1.27-2.75,2.8-6.12,4.58     c-1.53,0.76-3.67,1.78-6.42,3.56l-2.75,2.29c-0.31,0.25-0.61,0.76-0.92,1.02c-0.31,0.51,0,1.02,0.31,1.27s0.92,0.25,1.53,0     c0.61-0.51,0.92-0.51,1.22-0.76c3.98-2.29,7.03-4.33,9.18-5.6c0.92-0.51,2.14-0.51,3.36-0.25c2.14,0.25,5.81,1.02,11.62,2.03     c6.12,0.76,9.79,1.27,11.01,1.27c1.53,0,2.14-0.51,2.14-1.53c0-0.76-0.61-1.27-2.14-2.04c-3.67-1.53-7.34-2.54-11.01-3.05     l-4.89-0.51c0.61-0.26,1.53-0.76,2.45-1.27c0.92-0.51,1.83-0.76,2.75-1.02c1.53,0,2.45,0,3.36,0.25     c2.45,0.76,4.59,1.27,6.42,1.53c1.83,0.25,3.36,0.51,4.59,0.76l14.37,2.29c1.22,0,2.14,0,2.75-0.25     c0.92-0.26,1.22-0.51,1.53-1.27s0-1.27-0.61-1.78c-0.31-0.76-1.22-1.27-2.75-1.78c-1.83-1.27-4.28-2.04-7.34-2.54     c-0.92-0.26-2.45-0.76-4.89-1.02c-0.61,0-1.53,0-2.45-0.25c-1.22-0.25-1.84-0.25-1.84-0.51l9.18-2.03c0.92-0.25,2.14,0,3.67,0.25     c5.2,2.04,9.48,3.56,12.23,4.33l17.13,5.34c0.61,0.25,1.53,0.25,2.45,0.51c0.92,0.25,1.84,0.25,2.45,0.25     c2.14,0,3.06-0.76,3.06-2.29c0-0.76-0.31-1.27-0.92-1.78c-2.14-1.78-3.06-2.54-3.06-2.54c-5.2-3.05-10.09-5.09-15.29-6.11     c-0.92-0.25-1.22-0.51-1.53-0.51c1.22-0.26,2.14-0.51,3.06-0.51s1.53,0,2.14-0.25c3.06-0.25,6.42,0.51,9.79,1.78l26.91,10.68     c2.14,0.76,3.67,1.02,4.89,1.27c0.31,0.25,0.92,0.25,1.53,0c0.61-0.26,0.92-0.51,1.22-0.76c0.31-0.76,0.31-1.53-0.31-2.04     c-0.92-1.27-2.14-2.29-3.67-3.31c-3.36-2.29-7.65-4.32-12.85-6.1c-1.22-0.26-2.14-0.76-2.75-1.02c0.61,0,0.92,0,0.92,0     c3.98,0.26,10.09,1.02,18.35,2.04l3.06,1.27l7.95,5.6l7.34,4.33c0.31,0.25,1.53,0.51,3.06,1.02c0.92,0.25,1.53,0,1.83-0.25     c0.31-0.26,0.61-0.76,0.61-1.27l-0.31-0.76c-0.31-0.76-0.61-1.27-0.92-1.78s-0.61-1.02-0.92-1.27c0,0-0.92-0.76-2.45-2.03     c1.53,0.25,3.36,0.76,4.89,1.78l11.62,9.67l11.93,8.9c1.53,1.02,4.28,2.29,7.95,3.56c0.92,0.51,2.75,0.76,4.89,0.76     c1.83,0,2.75-1.02,2.75-2.8c-0.31-1.27-0.92-2.29-1.22-2.8L193.3,201.18z M159.96,173.97c3.98,0,7.95,0.25,11.93,1.02     c3.98,0.76,7.03,1.53,8.56,2.54c-3.98-0.25-10.09-0.76-18.35-1.78c-3.36-0.76-6.42-1.02-8.56-1.27     C155.98,174.22,158.12,173.97,159.96,173.97z M37.31,176.77c0.92-1.53,2.75-3.56,6.12-5.85c3.36-2.29,6.12-3.82,8.56-4.58     c-2.14,1.78-4.89,3.82-7.95,5.85C40.68,174.48,38.54,176,37.31,176.77z M54.44,181.35c2.14,0,4.28,0.25,7.03,1.02     c2.75,0.76,4.59,1.53,6.12,2.29h-0.31l-15.6-3.05C52.3,181.35,53.22,181.35,54.44,181.35z M89.92,178.04     c4.59,1.53,7.95,3.56,10.7,5.85h-0.31c-0.92,0.25-1.53,0-2.45-0.25l-13.46-3.82L74,176.26L73.08,176     c0.92-0.25,2.14-0.25,3.67-0.25C81.05,175.75,85.33,176.51,89.92,178.04z M92.98,167.61c5.2-3.31,10.7-5.09,17.13-5.6     c-0.92,0.76-3.06,1.53-7.03,2.8C99.09,166.08,95.73,167.1,92.98,167.61z M127.54,182.62c-0.92-0.25-3.98-1.27-9.18-3.31     c-5.2-2.03-8.87-3.56-11.32-4.83C114.69,176,121.42,178.8,127.54,182.62z M140.69,165.83c5.5-1.02,9.79-1.53,13.15-1.27     c-0.92,0.76-4.28,1.53-10.09,2.29c-5.81,1.02-11.01,1.78-15.29,2.03C131.21,167.86,135.18,166.85,140.69,165.83z M151.09,183.89     l-7.65-4.83c1.22,0.25,2.75,0.76,4.28,1.53c1.84,1.02,2.75,2.03,3.67,3.31L151.09,183.89L151.09,183.89z"/>
			<path d="M115.3,187.71c-0.61,0-1.22,0.25-1.53,0.51c-0.31,0.51-0.61,1.02-0.61,1.78c0,0.51,0.31,1.02,0.61,1.27     c0.31,0.51,0.92,0.76,1.22,0.76c1.53,0,2.14-0.76,2.14-2.04C117.14,188.72,116.53,187.96,115.3,187.71z"/>
			<path d="M196.66,183.64c-0.31,0-0.92,0.25-1.22,0.76c-0.31,0.51-0.61,1.02-0.61,1.78v0.51c0.31,1.27,0.92,1.78,2.14,1.78     c0.31,0,0.92-0.26,1.22-0.51c0.31-0.25,0.61-0.76,0.61-1.53C198.49,184.65,197.57,183.64,196.66,183.64z"/>
			<path d="M67.29,158.2c0-0.51-0.31-1.02-0.61-1.53c-0.31-0.51-0.92-0.76-1.53-0.76c-0.31,0-0.92,0.25-1.22,0.51     c-0.31,0.51-0.61,1.02-0.61,1.53c0.31,1.27,1.22,2.04,2.14,2.04v0.25C66.67,160.23,67.29,159.47,67.29,158.2z"/>
		</g>
		<g>
			<path d="M183.58,78.77c-0.92,0-2.14,0.51-3.06,1.27v0.25c-1.53,1.27-2.14,3.05-2.14,5.6c0,1.53,0.31,2.54,0.61,3.31     c0.92,1.78,2.45,2.8,4.28,2.8h0.61c0.92,0,1.84-0.26,2.75-1.02c0.92-0.76,1.22-1.53,1.53-2.54c0.31-1.02,0.31-2.54,0.31-4.32     c0-0.76-0.61-1.78-1.53-3.56C186.03,79.27,184.8,78.77,183.58,78.77z"/>
			<path d="M325.49,92.5l-0.92,0.76c-0.61-0.25-1.22-0.51-1.53-0.76c-0.61-0.51-0.92-0.51-1.22-0.76l-3.67-1.27     c-4.28-1.27-9.48-2.04-15.29-2.04c-5.2,0-10.4,0.51-15.29,1.78c-0.92,0.25-1.84,0.25-3.06,0c-1.53-0.26-2.75-0.51-3.67-0.76     c7.03-0.76,12.54-2.04,16.82-3.56c2.14-0.51,3.98-1.27,4.89-2.29c0.92-0.76,1.22-1.27,1.22-2.03c0-1.02-0.61-1.78-2.14-2.29     c-1.53-0.25-3.06-0.51-3.98-0.51h-1.22c-3.67,0.25-7.65,0.76-11.62,1.53c-4.89,0.76-11.01,3.05-18.66,6.87     c-1.22,0.51-2.14,0.76-3.06,0.76h-1.22l-9.48-0.51l-4.59-0.25c1.53-0.76,2.45-1.27,3.36-1.53c7.03-2.54,11.62-4.07,13.15-4.83     c0.92-0.25,1.83-0.76,2.75-1.27c0.92-0.51,1.53-1.02,2.14-1.27c1.22-0.76,1.53-1.53,0.92-2.29c-0.31-1.02-1.22-1.27-2.75-1.02     l-2.45,0.51c-9.18,2.29-16.82,5.34-23.24,9.67l-1.53,0.76c-0.61,0.51-2.45,0.76-5.81,0.76h-1.22c3.06-1.27,4.89-2.29,5.81-3.05     c1.84-0.76,4.28-2.29,7.65-4.32c1.22-0.76,1.84-1.53,1.84-2.29c0-0.51,0-0.76-0.31-1.02c-0.31-1.02-1.84-1.27-3.98-0.76     c-3.97,0.51-8.26,2.04-12.54,4.58c-2.14,1.27-4.89,3.56-8.87,6.87c-0.31,0.26-0.61,0.26-0.92,0.51s-0.92,0.51-1.22,0.51     c-2.75,0.26-6.12,0.76-10.7,1.02c0.92-0.76,1.53-1.02,1.83-1.27c4.89-2.8,8.56-4.83,10.7-6.36c1.22-0.76,2.75-1.78,4.89-3.56     c0.61-0.76,0.92-1.53,0.92-2.29c0-0.51,0-1.02-0.31-1.27c-0.61-0.76-1.22-1.02-2.14-1.02s-1.53,0-1.84,0.26     c-0.92,0-1.83,0.25-2.75,0.76l-6.71,3.02c-5.51,3.31-10.4,7.12-14.37,11.7c-0.92,1.27-2.45,2.03-3.98,2.29l-2.14,0.26     c-1.53,0.51-2.14,1.02-2.14,1.53v0.25c0.31,0.76,1.22,1.02,2.75,0.76h0.61l16.52-1.78c1.53-0.26,2.75,0.25,4.28,1.02     c3.97,2.29,7.34,4.07,9.79,5.09c0.31,0.26,0.61,0.51,1.53,0.76c0.92,0.51,1.53,0.76,2.14,1.02c1.22,0,1.83,0,2.14-0.25     c0.31-0.51,0-1.02-0.31-1.78c0-0.25-0.31-0.76-1.22-1.53c1.53,0.25,2.75,0.51,4.28,1.27l10.4,3.81c2.14,0.76,3.67,1.02,4.89,1.02     c1.84,0.25,2.75-0.26,2.75-1.53c0-0.76-0.31-1.27-0.61-1.53c-1.22-1.27-2.14-2.29-3.06-2.8c-2.75-2.03-7.03-3.81-12.23-5.34     l-1.53-0.76c2.14-0.25,5.51-0.25,9.79-0.25c1.53,0,2.75,0.25,3.67,1.02c3.97,3.31,7.34,5.6,10.09,6.87     c0.31,0.26,1.22,0.51,2.75,1.02c1.53,0.76,2.75,1.02,3.67,1.27c1.53,0.51,2.45,0,2.45-1.27v-0.51l-0.61-1.27l8.26,2.29     c1.22,0.51,2.75,0.76,4.28,0.76c0.92,0,1.53-0.25,1.83-0.51c0.31-0.25,0.61-0.76,0.61-1.02s-0.31-0.76-0.61-1.53     c-0.61-0.76-1.53-1.53-2.45-2.03c-0.92-0.76-1.83-1.27-2.75-1.78s-1.84-1.02-2.45-1.27l-1.53-1.02c0.92,0.25,2.14,0.25,3.67,0.25     l10.7,1.53l19.57,2.29c5.81,0.76,10.09,1.02,12.23,1.27l3.06,0.26l2.75-0.26c1.53,0,2.45-0.51,2.75-1.27     C327.02,94.54,326.71,93.52,325.49,92.5z M207.13,86.14c-0.37,0.15-0.62,0.3-0.83,0.4c5.07-4.89,10.15-8.33,15.82-10.32     c0.31-0.25,0.61-0.25,0.92-0.51s0.92-0.26,1.22-0.51c0.31,0.25,0,0.51-0.31,0.76s-0.61,0.51-0.92,0.51     c-4.89,3.31-9.79,6.1-14.37,8.9C208.04,85.63,207.43,85.89,207.13,86.14z M234.96,80.29c3.06-1.78,5.81-2.8,9.18-3.31l-0.31,0.26     c-3.98,2.8-9.79,5.85-17.43,9.41C229.15,84.11,232.21,82.07,234.96,80.29z M249.33,98.61h-0.31c0.31,0.25,0.31,0.25,0.61,0.51     c0.31,0.26,0.31,0.26,0,0.26l-24.16-8.65C235.26,91.48,243.22,94.28,249.33,98.61z M278.39,96.83     c-5.81-1.02-12.23-3.31-18.66-6.87C267.38,91.23,273.49,93.52,278.39,96.83z M274.72,86.14c9.79-4.33,18.66-6.11,26.3-5.34     l-1.22,0.76l-6.12,1.78l-17.74,2.8C275.94,86.14,274.72,86.14,274.72,86.14z M309.28,92.5c-7.27-0.93-11.95-1.44-14.11-2.1     c2.15-0.23,5.26-0.45,8.91-0.45c7.34,0,13.76,1.02,18.96,3.31C321.82,93.52,317.23,93.26,309.28,92.5z"/>
			<path d="M174.71,88.94v-2.29l-0.31-2.03c-0.92-3.05-2.45-4.58-4.89-4.58c-1.53,0-3.06,0.76-4.28,2.04     c-2.14,2.29-3.06,4.58-3.06,7.12c0,1.78,0.31,3.31,1.22,4.83c0.92,2.29,2.75,3.31,5.2,3.31s4.28-1.27,5.2-3.56     C174.4,92.76,174.71,91.23,174.71,88.94z"/>
			<path d="M181.13,96.32c-0.61-1.27-1.53-1.78-2.75-1.78c-0.92,0-1.53,0.25-2.45,1.02c-1.53,1.27-2.45,2.8-2.45,5.09     c0.31,1.02,0.61,1.78,1.53,2.55c0.92,0.76,1.84,1.27,2.75,1.27h0.61c0.92,0,1.53-0.25,2.45-0.76s1.22-1.27,1.53-2.03     c0.31-0.51,0.31-1.27,0.31-2.29c-0.31-1.27-0.92-2.29-1.22-3.05h-0.31V96.32z"/>
			<path d="M153.61,91.48l-1.22,0.76c-1.53-0.25-2.75-0.51-3.36-0.51c-3.36-0.25-6.73-2.03-9.79-4.83     c-1.22-1.02-2.75-2.29-4.59-3.56c-1.84-1.53-3.36-2.54-4.59-3.31c-0.92-0.76-2.14-1.02-3.06-0.25c-0.31,0.25-0.61,0.76-0.61,1.02     s0,0.51,0,0.76l1.22,1.53c-0.92-0.26-1.53-0.76-2.14-1.02c-0.61-0.51-0.92-0.51-1.22-0.76l-14.37-5.6     c-0.92-0.51-2.45-1.02-4.89-1.27c-0.31-0.25-0.92-0.25-1.22,0c-0.61,0.25-0.92,0.51-1.22,0.76c-0.31,0.51,0,1.27,0.31,2.04     c0.92,1.27,2.14,2.03,3.36,2.54l12.23,6.1l2.14,1.02l-18.66-1.02l-2.45-0.76c-3.06-1.53-7.64-3.56-13.76-6.36     c-0.92-0.26-1.53-0.51-2.14-0.76c-0.92-0.26-1.53-0.26-2.14-0.51c-1.53,0-2.45,0.51-2.45,1.78l0.31,1.02l-3.06-0.76l-11.93-2.8     c-0.61-0.25-1.22-0.25-1.83-0.25c-0.61,0.25-1.22,0.25-2.14,0c-1.22,0-1.83,0.51-2.14,1.27c-0.31,0.76,0,1.27,1.22,2.04     c0.92,0.76,1.83,1.27,3.06,1.78c2.14,0.76,3.97,1.27,5.81,1.78c1.83,0.51,3.36,1.02,4.89,1.53l2.14,0.76     c-1.53,0.25-3.67,0.25-6.42,0.25l-26.91-0.76c-2.45,0-6.12,0.26-11.01,0.51c-2.14,0.25-3.36,1.02-3.36,2.29     c0,0.76,0.31,1.27,1.22,1.53c0.92,0.51,1.53,0.76,2.45,1.02c3.98,0.76,7.03,1.02,9.18,1.27c7.03,0.51,14.68-0.25,23.24-2.29     c2.45-0.76,6.42-1.02,11.62-1.02c-0.31,0.26-0.92,0.51-1.22,0.51c-0.31,0-0.61,0-0.92,0.25c-3.97,0.76-7.03,1.78-9.48,2.54     c-1.53,0.26-2.45,0.76-3.36,1.53c-0.61,0.26-0.92,0.76-0.61,1.27c0.31,0.51,0.61,0.76,1.53,1.02c0.61,0.25,1.53,0.25,3.06,0.25     c5.51-0.51,10.09-1.02,13.76-1.78c3.67-0.76,7.34-1.78,10.7-3.31c4.28-1.53,8.26-2.29,12.23-2.29l3.98,0.26     c2.14,0,3.67,0,4.59,0.25c-0.31,0.25-0.92,0.51-2.45,0.76l-15.9,4.32c-1.53,0.26-2.75,0.76-3.97,1.53     c-0.61,0.25-0.92,0.76-0.61,1.27c0.31,0.51,0.61,0.76,1.53,1.02c0.31,0.25,0.92,0.25,1.83,0.25l4.59-0.25     c10.09-1.53,18.35-4.07,24.77-7.63c0.92-0.26,1.84-0.51,2.75-0.26c1.53,0,3.06,0,4.28,0.26c1.22,0.25,2.45,0.25,3.36,0.51     l1.84,0.25l-1.84,0.76l-9.48,3.31c-0.92,0.25-1.84,0.76-2.45,1.53c-0.31,0.26-0.61,0.26-0.61,0.51c-0.31,0.25-0.31,0.51,0,0.76     c0.31,0.76,0.92,1.02,1.53,1.02s1.83-0.25,3.36-0.51c4.89-1.02,9.48-3.05,13.46-5.85c0.92-0.51,1.83-0.76,2.75-0.76h0.92     c1.22,0.26,3.36,0.76,6.73,1.02l6.73,0.76c0.31,0.25,0.92,0.25,1.22,0c0.31-0.26,0.61-0.51,0.61-0.76     C154.52,91.99,154.22,91.74,153.61,91.48z M43.81,89.19c-2.75,0-5.5-0.25-8.26-0.76c1.53-0.51,4.89-0.76,10.4-0.76     c3.97,0,7.34,0,9.48,0.26C50.84,88.69,47.17,89.19,43.81,89.19z M65.22,79.02c4.59,0.76,11.62,2.29,20.49,5.09     C78.67,83.85,71.64,82.33,65.22,79.02z M85.71,89.96c-2.45,0.76-5.51,1.27-9.48,1.78s-6.42,0.76-7.64,0.76l22.94-5.09     C91.52,87.41,89.68,88.18,85.71,89.96z M103.45,93.77c-0.92,0.25-3.67,0.76-8.26,1.53l4.89-1.27l8.87-2.29     C107.73,92.5,105.89,93.01,103.45,93.77z M119.96,83.09c-5.91-2.81-9.97-4.75-11.78-6.23c2.32,0.47,6.4,1.94,12.7,4.45     c7.03,3.05,11.32,5.34,13.46,6.61C131.28,87.67,126.39,85.89,119.96,83.09z"/>
		</g>
		<g>
			<path d="M105.76,285.04c0-1.67-0.76-2.67-1.89-2.67c-0.38,0-1.13,0.33-1.51,0.67c-0.38,0.33-0.75,1-0.75,1.67     c0,0.67,0.38,1.33,0.75,1.67c0.38,0.33,1.13,0.67,1.51,0.67C105,287.05,105.76,286.38,105.76,285.04z"/>
			<path d="M152.17,258.7l5.28,4.34l1.13,1c-1.13,0-2.26-0.33-3.77-0.67c-1.13-0.33-4.15-1.33-8.68-2.33c-2.64-1-6.41-2-11.32-3.34     c-2.64-0.33-4.53-0.67-6.04-0.67c-1.89,0.33-2.64,1-2.64,2.33c0,0.67,0,1.34,0.38,1.67l1.13,2l-13.96-4.34l-5.28-1.34     c-1.89,0-2.64,0.33-3.02,1c-0.38,1,0,2,1.13,2.67l4.15,2.33c-3.4,0-7.17-1-10.56-2.67l-11.7-6l-17.73-7.34     c-0.75-0.33-2.26-1-4.9-1.33c-2.64,0-4.15,1-4.15,3l0.38,1.33c0.38,1,1.51,2.33,3.02,4c2.64,2.67,6.42,5,11.7,7     c7.17,2.33,15.09,4,23.4,4.34c1.89,0.33,3.77,0.67,5.66,1.33c1.88,0.67,3.77,1,4.9,1.34l-3.4,0.67l-15.85,2     c-1.51,0.33-3.02,1-4.53,2c-1.13,0.67-1.51,1.33-1.51,2.33s0.76,1.67,1.89,2.33c1.51,0.67,3.4,1,5.28,1     c6.04,0.33,12.45-0.33,19.24-1.67c5.28-1,11.32-2.67,17.73-5.34c1.51-0.33,2.64-0.67,3.77-0.67c8.68,0.33,15.09,0.67,19.24,0.67     c0.38,0,0.75,0,1.13,0.33c-2.64,1-4.53,1.33-5.66,1.67c-0.75,0.33-2.64,0.67-6.04,1.33c-3.4,1-6.42,2-9.06,3.67     c-1.51,0.67-3.02,1.67-4.15,3.34c-0.75,1-0.75,1.67-0.38,2.67c0.38,1,1.51,1.67,2.64,2c0.38,0.33,1.51,0.33,2.64,0.33l8.68-1.67     c8.68-2.67,16.23-6.67,22.64-12.34c1.13-1,1.89-1.33,3.02-1.33l10.94-0.67c-1.13,1-1.89,1.34-2.64,1.67l-8.68,5     c-1.51,1-2.64,2-3.77,3.34c-0.38,1-0.38,1.67,0.38,2.67c0.75,1,1.89,1.33,3.02,1.33l3.02-1c5.28-1.67,10.94-5.34,16.6-11.01     c3.02-2.67,6.04-4,8.68-4.34c2.64-0.33,4.15-1,5.28-1.33c1.51-0.67,2.26-1.33,2.26-1.67c0.38-0.67-0.38-1-1.51-1.33h-0.75     c-0.38-0.33-1.51,0-2.64,0.33c-2.64,0.67-5.28,0-8.3-1.67l-8.3-5l-17.36-10.34c-0.76-0.33-1.89-1-3.4-1.33     c-1.13-0.67-2.26-0.67-3.02,0.33c-0.75,1-0.75,1.67-0.38,2.67c0.38,0.33,1.13,1,1.51,1.67c0.75,0.67,1.13,1.33,1.89,2     c5.66,5.67,12.07,9.67,20,12.34l3.02,1.33c-3.4,0.33-6.04,0.67-7.17,0.67c-1.13,0.33-2.64-0.33-4.53-1.33l-9.81-7     c0,0-3.02-2-9.06-6c-1.89-1-3.4-1-4.15,0c-0.38,1-0.38,2,0.75,3.33L152.17,258.7z M77.46,257.36c-4-1.6-7.29-3.84-10.22-6.98     c2.01,0.13,6.03,1.45,12.11,3.98c6.41,3,11.32,5.34,13.96,7.34C86.51,260.36,81.23,259.03,77.46,257.36z M93.81,274.71     c1.61-0.83,5.55-1.45,11.57-2.34c6.79-1,11.7-1.34,14.72-1C109.97,274.02,100.96,275.02,93.81,274.71z M165.38,252.36H165     c0.38-0.33,1.13,0,2.64,0.67c1.51,1,2.64,1.67,3.77,2c4.91,3,8.68,5.34,11.32,6.67C176.7,260.36,171.04,257.36,165.38,252.36z      M146.51,280.04c-5.48,1.94-9.55,2.93-12.88,2.68c1.59-1.56,4.52-3.12,9.11-4.68c4.9-2,9.43-3,14.34-3.67     C155.19,276.38,151.79,278.38,146.51,280.04z M133.68,260.03c4.15,0.67,9.81,2,17.36,4.34c1.89,0.67,4.53,1.33,7.92,2.33     C149.15,266.38,140.85,264.03,133.68,260.03z"/>
			<path d="M124.62,250.36c0-0.67-0.38-1.33-0.75-1.67c-0.38-0.33-1.13-0.67-1.51-0.67c-1.13,0-1.89,0.67-1.89,2     c0.38,1.67,1.13,2.33,2.26,2.33C123.87,252.36,124.62,251.69,124.62,250.36z"/>
			<path d="M61.61,258.7h-0.75c-0.38,0-0.75,0.33-1.13,0.67c-0.38,0.33-0.38,1,0,1.67c0.38,1.33,1.13,2,2.26,2h0.38     c1.51-0.33,1.89-1.33,1.51-2.33c0-0.33-0.38-1-0.76-1.34S61.99,258.7,61.61,258.7z"/>
			<path d="M224.63,253.7c0.44-2.95-0.9-5.7-3.33-7.37c-0.64-0.44-1.33-0.79-2.05-1.05c0.03-0.04,0.08-0.08,0.11-0.13     c0.23-0.43,0.08-1.16-0.43-1.35c-3.67-1.39-7.81,0.28-9.88,3.54c-1.39,2.19-1.33,4.72-0.31,6.86c1.03,4.51,5.93,8.11,10.6,6.17     C222.05,259.24,224.19,256.64,224.63,253.7z"/>
			<path d="M212.27,272.41c-0.64-0.44-1.33-0.79-2.05-1.05c0.03-0.04,0.08-0.08,0.11-0.13c0.23-0.43,0.08-1.16-0.43-1.35     c-3.67-1.39-7.81,0.28-9.88,3.54c-1.39,2.19-1.33,4.72-0.31,6.86c1.03,4.51,5.93,8.11,10.6,6.17c2.72-1.13,4.86-3.73,5.3-6.67     C216.04,276.83,214.7,274.08,212.27,272.41z"/>
			<path d="M232.34,263.39c-0.64-0.44-1.33-0.79-2.05-1.05c0.03-0.04,0.08-0.08,0.11-0.13c0.23-0.43,0.08-1.16-0.43-1.35     c-3.67-1.39-7.81,0.28-9.88,3.54c-1.39,2.19-1.33,4.72-0.31,6.86c1.03,4.51,5.93,8.11,10.6,6.17c2.72-1.13,4.86-3.73,5.3-6.67     C236.1,267.81,234.76,265.06,232.34,263.39z"/>
		</g>
	</g>
</g>
</svg>