<svg version="1.0" id="Layer_1" xmlns="http://www.w3.org/2000/svg" xmlns:xlink="http://www.w3.org/1999/xlink" x="0px" y="0px" width="500" height="500" viewBox="0 0 500 500" enable-background="new 0 0 500 500" xml:space="preserve">
<g>
	<path fill="none" d="M226.941,346.93c7.181-1.935,14.305-4.075,21.396-6.316C241.246,342.85,234.117,344.979,226.941,346.93"/>
	<path fill="none" d="M351.52,292.292c1.519-1.379,2.962-2.846,4.25-4.443C354.469,289.436,353.022,290.896,351.52,292.292"/>
	<path fill="none" d="M210.286,279.975c0.988-0.162,0.556-0.097-1.295,0.194C209.422,280.104,209.854,280.039,210.286,279.975"/>
	<path fill="none" d="M358.818,271.84c-1.432-3.325-3.654-6.241-6.03-8.942C355.127,265.613,357.384,268.529,358.818,271.84"/>
	<path fill="none" d="M114.897,307.607c-0.155,2.145-0.082,4.3,0.123,6.438C114.832,311.907,114.778,309.751,114.897,307.607"/>
	<path fill="none" d="M129.347,348.985c-0.981-1.055-1.902-2.16-2.762-3.317c1.771,2.482,3.849,4.828,6.425,6.502   C131.667,351.248,130.447,350.188,129.347,348.985"/>
	<path fill="none" d="M312.767,190.401c4.745,1.519,9.313,3.547,13.744,5.818c-5.613-2.891-11.455-5.453-17.615-6.922   C310.197,189.622,311.488,189.99,312.767,190.401"/>
	<path fill="none" d="M311.955,234.216c0.322,0.406,0.629,0.826,0.913,1.263C312.584,235.041,312.275,234.624,311.955,234.216z"/>
	<path fill="none" d="M296.015,247.569c1.377-0.838,2.751-1.679,4.125-2.521c-2.114,1.279-4.225,2.565-6.339,3.845   C294.539,248.452,295.276,248.01,296.015,247.569"/>
	<path fill="none" d="M123.79,295.35c-1.846,0.404-3.728,0.845-5.178,2.144C120.051,296.216,121.964,295.746,123.79,295.35"/>
	<path fill="none" d="M331.659,243.532c-4.922-2.235-9.971-1.08-14.692,1.104C321.661,242.541,326.741,241.38,331.659,243.532"/>
	<path fill="none" d="M348.619,258.387c-2.179-2.291-4.397-4.545-6.664-6.75C344.168,253.896,346.409,256.125,348.619,258.387"/>
	<path fill="none" d="M193.454,353.119c7.234-0.906,14.446-1.983,21.633-3.206C207.902,351.139,200.682,352.193,193.454,353.119"/>
	<path fill="none" d="M331.271,306.187c-3.271,1.843-6.587,3.608-9.937,5.309C324.688,309.802,328.002,308.035,331.271,306.187z"/>
	<path fill="none" d="M249.449,340.264c0.828-0.269,1.656-0.537,2.484-0.807C252.188,339.375,247.135,340.999,249.449,340.264"/>
	<path fill="none" d="M359.292,272.983c-0.706-1.961,0.563,2.084,0.541,1.985C359.652,274.307,359.472,273.646,359.292,272.983"/>
	<path fill="none" d="M130.266,286.444c1.023-0.109,2.048-0.206,3.074-0.297C132.282,286.239,131.259,286.339,130.266,286.444z"/>
	<path fill="none" d="M177.268,291.428c-12.442,0.815-24.907,1.233-37.348,2.089C152.364,292.733,164.827,292.272,177.268,291.428"/>
	<path fill="none" d="M196.844,289.7c-0.304,0.033-0.608,0.067-0.912,0.101C196.236,289.772,196.54,289.739,196.844,289.7"/>
	<path fill="none" d="M134.16,352.866C134.712,353.158,133.795,352.672,134.16,352.866"/>
	<path fill="none" d="M135.545,293.828c-3.001,0.233-6.003,0.519-8.975,1.007C129.544,294.365,132.545,294.068,135.545,293.828"/>
	<path fill="none" d="M298.069,255.472c-11.526,6.854-23.362,13.244-35.748,18.416C274.743,268.724,286.554,262.402,298.069,255.472   "/>
	<path fill="none" d="M136.673,293.741c-0.731,0.055-0.361,0.029,1.108-0.076C137.412,293.69,137.042,293.716,136.673,293.741"/>
	<path fill="none" d="M135.072,353.288c3.553,1.606,7.53,2,11.375,2.253C142.658,355.233,138.595,354.83,135.072,353.288"/>
	<path fill="none" d="M350.628,228.202c2.49,1.002,5.151,1.56,7.831,1.69c-4.124-0.237-8.18-1.507-11.69-3.687   C347.994,226.988,349.28,227.653,350.628,228.202"/>
	<path fill="none" d="M335.275,206.066C335.287,206.703,335.241,204.69,335.275,206.066"/>
	<path fill="none" d="M342.246,188.335C341.659,188.938,343.23,187.328,342.246,188.335"/>
	<path fill="none" d="M332.875,187.53c0.926-1.379,1.953-2.688,3.076-3.913C334.828,184.84,333.801,186.146,332.875,187.53z"/>
	<path fill="none" d="M286.413,193.708c-3.431,3.869-5.383,9.473-4.743,14.638c-0.852-7.107,2.997-14.887,9.397-18.176   C289.309,191.045,287.719,192.236,286.413,193.708"/>
	<path fill="none" d="M311.938,234.196c-4.406-5.584-11.521-8.271-17.618-11.518C300.396,225.964,307.499,228.632,311.938,234.196"/>
	<path fill="none" d="M347.02,184.564c0.164-0.099,0.326-0.199,0.492-0.294C347.347,184.366,347.183,184.465,347.02,184.564z"/>
	<path fill="none" d="M375.358,224.337c2.316-1.904,4.229-4.207,5.691-6.828C379.579,220.101,377.646,222.428,375.358,224.337"/>
	<path fill="none" d="M362.537,181.137c-4.395-0.515-8.849,0.211-12.878,2.041C353.675,181.375,358.161,180.661,362.537,181.137"/>
	<path fill="none" d="M382.291,195.792c-1.207-2.81-2.965-5.372-5.124-7.536c3.238,3.301,5.531,7.503,6.529,12.019   C383.375,198.734,382.907,197.24,382.291,195.792"/>
	<path fill="none" d="M348.607,183.678c0.308-0.155,0.617-0.304,0.931-0.447C349.226,183.375,348.914,183.521,348.607,183.678z"/>
	<path fill="none" d="M135.025,286.005c-0.098-1.045-0.186-2.093-0.271-3.139C134.841,283.942,134.931,284.998,135.025,286.005z"/>
	<path fill="none" d="M279.054,144.392c4.847,0.884,9.635,2.076,14.321,3.604C288.695,146.465,283.906,145.273,279.054,144.392z"/>
	<path fill="none" d="M245.184,142.862C243.283,143.013,245.792,142.814,245.184,142.862"/>
	<path fill="none" d="M145.978,285.313c2.989-0.156,5.978-0.308,8.967-0.46c-5.309,0.248-10.619,0.502-15.921,0.86   C141.34,285.563,143.659,285.435,145.978,285.313"/>
	<path fill="none" d="M341.168,179.02c-1.383,0.973-2.657,2.037-3.871,3.212C338.504,181.062,339.795,179.991,341.168,179.02"/>
	<path fill="none" d="M138.007,222.966c0.893-3.931,1.951-7.82,3.199-11.649C139.956,215.143,138.895,219.032,138.007,222.966z"/>
	<path fill="none" d="M235.489,274.72c13.453-3.587,26.382-8.704,38.812-14.957C261.884,266.014,248.922,271.11,235.489,274.72"/>
	<path fill="none" d="M328.905,170.56c0.546,0.573,1.092,1.147,1.638,1.72c-3.644-3.851-7.286-7.718-11.462-11.004   C322.631,164.065,325.78,167.314,328.905,170.56"/>
	<path fill="none" d="M172.881,166.89c-13.429,8.742-22.874,22.048-28.859,36.739C150.004,189.014,159.587,175.664,172.881,166.89"/>
	<path fill="#E32A26" d="M336.097,183.46c0.656-0.707,1.682-1.729,2.407-2.364c-16.435-19.287-34.244-32.205-59.583-36.729   c-24.457-4.436-50.053-1.156-73.368,7.029c-13.778,4.837-28.402,11.084-39.574,20.719c-10.945,9.438-18.648,22.107-23.537,35.609   c-8.965,24.838-9.853,52.209-7.417,78.281c32.565-2.63,65.26-2.43,97.163-10.438c15.322-3.824,30.036-9.588,44.073-16.801   c12.811-6.583,24.548-15.467,37.686-21.356c-6.31-13.69-30.876-12.817-32.335-29.534c-0.73-8.36,4.566-16.579,12.623-18.951   c11.335-3.337,24.471,3.115,34.242,8.32C329.82,192.123,332.487,187.333,336.097,183.46"/>
	<path fill="#FFFFFF" d="M384.09,202.655c-3.08-27.945-43.453-27.585-48.385-1.743c-2.444,12.715,6.054,25.554,18.677,28.406   C370.502,232.96,386.034,219.139,384.09,202.655"/>
	<path d="M388.768,191.111c-8.155-16.449-28.951-22.058-43.731-14.445c-8.562-10.146-17.798-20.265-29.264-27.154   c-11.76-7.066-25.13-11.324-38.646-13.402c-28.584-4.394-58.159,0.743-84.642,11.928c-25.191,10.64-44.742,26.145-55.468,51.907   c-11.272,27.074-12.501,58.011-9.797,86.862c-5.466,0.721-13.04,2.311-16.793,8.344c-3.739,6.011-3.846,13.743-3.111,20.561   c1.696,15.738,9.394,39.054,25.752,45.232c17.046,6.438,39.564,2.44,57.136,0.407c18.418-2.133,35.741-5.75,53.501-11.097   c19.191-5.777,38.095-12.525,56.541-20.372c17.832-7.585,36.274-15.847,51.706-27.743c13.648-10.521,21.389-24.868,10.027-40.358   c-9.061-12.354-24.871-30.11-40.578-26.885c-2.752-6.631-8.539-11.047-14.605-14.49c-5.063-2.875-15.324-5.772-17.142-12.005   c-2.326-7.99,5.802-13.078,12.603-12.401c8.868,0.882,17.518,5.316,25.167,9.613c-0.006-1.065,0.044-2.128,0.15-3.188   c-1.917,20.894,16.963,38.44,37.661,34.908C386.2,233.755,398.236,210.212,388.768,191.111 M133.339,286.147   c-1.026,0.091-2.05,0.188-3.074,0.297C131.259,286.339,132.282,286.239,133.339,286.147z M316.967,244.637   c15.611-7.225,26.476,7.634,35.821,18.261c5.045,5.734,9.515,12.838,5.846,20.548c-3.646,7.662-11.883,13.166-18.783,17.602   c-28.469,18.301-61.722,30.265-93.875,40.31c-18.047,5.637-35.723,9.665-54.486,12.011c-9.202,1.149-18.462,1.92-27.727,2.307   c-8.576,0.357-18.263,1.018-26.542-1.573c-12.931-4.048-18.981-22.248-21.334-34.14c-1.265-6.417-2.277-14.442,1.072-20.357   c2.94-5.192,11.203-5.128,16.338-5.588c33.217-2.98,66.46-2.522,99.078-10.402c11.038-2.68,21.834-6.205,32.263-10.71   C282.967,264.987,298.968,252.97,316.967,244.637 M332.745,187.722c-1.917,2.911-3.384,6.15-4.269,9.524   c-9.427-5.021-21.134-10.586-32.125-8.803c-9.244,1.5-15.797,10.593-14.682,19.903c2.241,16.44,25.925,15.281,32.276,29.064   c-13.136,5.889-24.876,14.774-37.686,21.356c-14.055,7.222-28.732,12.972-44.073,16.801c-31.896,8.007-64.602,7.809-97.163,10.438   c-2.436-26.072-1.548-53.443,7.417-78.281c5.207-14.382,13.431-27.767,25.549-37.329c11.506-9.079,26.049-15.157,39.83-19.777   c22.677-7.604,47.435-10.543,71.1-6.251c25.358,4.528,43.155,17.45,59.583,36.729c0.853-0.738,1.74-1.43,2.664-2.076   C337.857,181.363,334.973,184.33,332.745,187.722 M382.92,213.366c-5.108,14.703-23.095,21.192-36.313,12.736   c-9.373-5.924-13.546-17.924-10.083-28.348c2.376-7.148,7.967-12.818,15.062-15.358   C370.423,175.654,389.329,194.443,382.92,213.366"/>
	<path fill="#FFFFFF" d="M306.585,250.336c-26.066,15.646-52.213,28.861-82.117,35.045c-13.898,2.871-28.039,4.63-42.185,5.694   c-19.007,1.43-38.932,0.44-57.688,4.105c-12.549,2.51-10.496,17.849-8.094,27.561c1.98,8.109,5.217,16.105,10.084,22.926   c5.749,7.683,12.161,9.415,21.507,9.976c35.947,2.173,72.115-5.9,106.044-16.898c16.305-5.284,32.381-11.356,48.069-18.264   c16.515-7.302,34.161-15.139,47.989-27.021c5.638-4.844,11.757-11.731,9.31-19.768c-2.037-6.687-7.689-12.112-12.494-16.935   c-4.635-4.651-9.224-10.445-15.352-13.227C322.982,239.735,313.782,246.02,306.585,250.336"/>
</g>
</svg>